<svg xmlns="http://www.w3.org/2000/svg" viewBox="0 0 640 800" role="img" aria-label="Ира улыбается">
  <rect width="640" height="800" fill="#3b3037"/><circle cx="510" cy="122" r="154" fill="#e2bd78" opacity=".17"/>
  <path d="M94 800c12-181 88-272 226-272s214 91 226 272" fill="#6a3a46"/><path d="M232 510h176l28 111-116 66-116-66z" fill="#d7aa86"/>
  <ellipse cx="320" cy="340" rx="143" ry="178" fill="#dcb18d"/><path d="M178 348c-11-176 56-244 148-244 105 0 159 74 143 249-25-45-44-102-47-148-66 59-139 79-244 80z" fill="#30252c"/>
  <path d="M238 351q34-28 68 0M340 351q35-28 70 0" fill="none" stroke="#4b3031" stroke-width="9" stroke-linecap="round"/><path d="M277 422q43 52 87 0" fill="#fff4e6" stroke="#8f5556" stroke-width="8" stroke-linejoin="round"/>
  <circle cx="223" cy="397" r="22" fill="#c96f70" opacity=".25"/><circle cx="417" cy="397" r="22" fill="#c96f70" opacity=".25"/>
  <rect x="30" y="31" width="580" height="738" rx="3" fill="none" stroke="#d9bb7b" opacity=".45"/><text x="52" y="735" fill="#eadfc6" font-family="Georgia,serif" font-size="40">ИРА</text><text x="53" y="765" fill="#e0bc78" font-family="Arial,sans-serif" font-size="14" letter-spacing="4">ПРОТОТИП · ТЕПЛО</text>
</svg>
